<svg id="About" xmlns="http://www.w3.org/2000/svg" width="28" height="28" viewBox="0 0 37.341 37.341">
  <path id="Path_57" data-name="Path 57" d="M42.341,12.335A7.335,7.335,0,0,0,35.006,5H12.335A7.335,7.335,0,0,0,5,12.335v22.67a7.335,7.335,0,0,0,7.335,7.335H35.006a7.335,7.335,0,0,0,7.335-7.335Zm-3.395,22.67a3.94,3.94,0,0,1-3.94,3.941H12.335a3.94,3.94,0,0,1-3.94-3.941V12.335a3.94,3.94,0,0,1,3.94-3.941H35.006a3.94,3.94,0,0,1,3.94,3.941ZM28.868,33.854a1.7,1.7,0,0,1-1.7,1.7H20.382a1.7,1.7,0,1,1,0-3.395h1.591V21.973H20.382a1.7,1.7,0,1,1,0-3.395h4.986V32.157h1.8A1.7,1.7,0,0,1,28.868,33.854ZM21.124,14.441a2.546,2.546,0,1,1,2.546,2.546A2.546,2.546,0,0,1,21.124,14.441Z" transform="translate(-5 -5)" fill="#fff"/>
</svg>
