<svg id="_1814093_calendar_events_schedule_icon" data-name="1814093_calendar_events_schedule_icon" xmlns="http://www.w3.org/2000/svg" width="31" height="31" viewBox="0 0 37.019 39.647">
  <g id="Icon-Calendar" transform="translate(0 0)">
    <path id="Fill-133" d="M13.166-428.149H-16.315A3.862,3.862,0,0,1-20-432.1v-29.039c0-2.158,1.34-3.956,3.1-3.956h1.843v2.607H-16.9c-.251,0-.586.539-.586,1.349V-432.1a1.338,1.338,0,0,0,1.256,1.349H13.25a1.338,1.338,0,0,0,1.256-1.349v-29.039c0-.809-.419-1.349-.586-1.349H12.077V-465.1H13.92c1.675,0,3.1,1.8,3.1,3.956V-432.1a4.124,4.124,0,0,1-3.853,3.956" transform="translate(20 467.797)" fill="#fff"/>
    <path id="Fill-134" d="M-9.944-460.1a1.338,1.338,0,0,1-1.256-1.349v-5.3A1.338,1.338,0,0,1-9.944-468.1a1.338,1.338,0,0,1,1.256,1.349v5.3A1.4,1.4,0,0,1-9.944-460.1" transform="translate(18.57 468.1)" fill="#fff"/>
    <path id="Fill-135" d="M13.456-460.1a1.338,1.338,0,0,1-1.256-1.349v-5.3a1.338,1.338,0,0,1,1.256-1.349,1.338,1.338,0,0,1,1.256,1.349v5.3a1.338,1.338,0,0,1-1.256,1.349" transform="translate(14.768 468.1)" fill="#fff"/>
    <path id="Fill-136" d="M-5.3-465.1H6.928v2.7H-5.3Z" transform="translate(17.612 467.797)" fill="#fff"/>
    <path id="Fill-137" d="M-17.1-456.3H14.893v2.7H-17.1Z" transform="translate(19.529 466.909)" fill="#fff"/>
    <path id="Fill-138" d="M15.2-450.4h2.429v2.607H15.2Z" transform="translate(14.281 466.313)" fill="#fff"/>
    <path id="Fill-139" d="M9.3-450.4h2.513v2.607H9.3Z" transform="translate(15.239 466.313)" fill="#fff"/>
    <path id="Fill-140" d="M3.5-450.4H5.929v2.607H3.5Z" transform="translate(16.182 466.313)" fill="#fff"/>
    <path id="Fill-141" d="M-2.4-450.4H.029v2.607H-2.4Z" transform="translate(17.14 466.313)" fill="#fff"/>
    <path id="Fill-142" d="M-8.3-450.4h2.513v2.607H-8.3Z" transform="translate(18.099 466.313)" fill="#fff"/>
    <path id="Fill-143" d="M15.2-444.5h2.429v2.607H15.2Z" transform="translate(14.281 465.718)" fill="#fff"/>
    <path id="Fill-144" d="M9.3-444.5h2.513v2.607H9.3Z" transform="translate(15.239 465.718)" fill="#fff"/>
    <path id="Fill-145" d="M3.5-444.5H5.929v2.607H3.5Z" transform="translate(16.182 465.718)" fill="#fff"/>
    <path id="Fill-146" d="M-2.4-444.5H.029v2.607H-2.4Z" transform="translate(17.14 465.718)" fill="#fff"/>
    <path id="Fill-147" d="M-8.3-444.5h2.513v2.607H-8.3Z" transform="translate(18.099 465.718)" fill="#fff"/>
    <path id="Fill-148" d="M-14.1-444.5h2.429v2.607H-14.1Z" transform="translate(19.041 465.718)" fill="#fff"/>
    <path id="Fill-149" d="M15.2-438.7h2.429v2.7H15.2Z" transform="translate(14.281 465.132)" fill="#fff"/>
    <path id="Fill-150" d="M9.3-438.7h2.513v2.7H9.3Z" transform="translate(15.239 465.132)" fill="#fff"/>
    <path id="Fill-151" d="M3.5-438.7H5.929v2.7H3.5Z" transform="translate(16.182 465.132)" fill="#fff"/>
    <path id="Fill-152" d="M-2.4-438.7H.029v2.7H-2.4Z" transform="translate(17.14 465.132)" fill="#fff"/>
    <path id="Fill-153" d="M-8.3-438.7h2.513v2.7H-8.3Z" transform="translate(18.099 465.132)" fill="#fff"/>
    <path id="Fill-154" d="M-14.1-438.7h2.429v2.7H-14.1Z" transform="translate(19.041 465.132)" fill="#fff"/>
    <path id="Fill-155" d="M9.3-432.8h2.513v2.607H9.3Z" transform="translate(15.239 464.536)" fill="#fff"/>
    <path id="Fill-156" d="M3.5-432.8H5.929v2.607H3.5Z" transform="translate(16.182 464.536)" fill="#fff"/>
    <path id="Fill-157" d="M-2.4-432.8H.029v2.607H-2.4Z" transform="translate(17.14 464.536)" fill="#fff"/>
    <path id="Fill-158" d="M-8.3-432.8h2.513v2.607H-8.3Z" transform="translate(18.099 464.536)" fill="#fff"/>
    <path id="Fill-159" d="M-14.1-432.8h2.429v2.607H-14.1Z" transform="translate(19.041 464.536)" fill="#fff"/>
  </g>
</svg>
