<svg xmlns="http://www.w3.org/2000/svg" width="31" height="31" viewBox="0 0 34.499 40.545">
  <g id="_2290864_art_document_draw_list_note_icon" data-name="2290864_art_document_draw_list_note_icon" transform="translate(0.6 0.6)">
    <g id="Group_41" data-name="Group 41" transform="translate(20.553 15.653)">
      <path id="Line_24" data-name="Line 24" d="M-4.586,1.315a.4.4,0,0,1-.22-.066A.435.435,0,0,1-4.937.66L-1.609-4.8a.408.408,0,0,1,.573-.135.435.435,0,0,1,.131.59l-3.328,5.46A.412.412,0,0,1-4.586,1.315Z" transform="translate(13.538 13.233)" fill="#fff" stroke="#fff" stroke-linecap="round" stroke-width="1.2"/>
      <path id="Path_41" data-name="Path 41" d="M373.727,365.741a.413.413,0,0,1-.36-.215.435.435,0,0,1,.153-.584,4.768,4.768,0,0,0,1.442-1.661.408.408,0,0,1,.573-.133.435.435,0,0,1,.129.59,5.5,5.5,0,0,1-1.731,1.945A.4.4,0,0,1,373.727,365.741Z" transform="translate(-366.361 -349.39)" fill="#fff" stroke="#fff" stroke-linecap="round" stroke-width="1.2"/>
      <path id="Line_25" data-name="Line 25" d="M-4.585-1.415a.413.413,0,0,1-.36-.213.435.435,0,0,1,.151-.584l4.576-2.73a.409.409,0,0,1,.568.156A.435.435,0,0,1,.2-4.2l-4.576,2.73A.4.4,0,0,1-4.585-1.415Z" transform="translate(7.376 20.496)" fill="#fff" stroke="#fff" stroke-linecap="round" stroke-width="1.2"/>
      <path id="Path_42" data-name="Path 42" d="M290.979,399.272a1.216,1.216,0,0,1-.69-.2c-.552-.368-.752-1.161-.629-2.5a.419.419,0,0,1,.453-.385.424.424,0,0,1,.374.466c-.12,1.3.137,1.619.253,1.7s.47.178,1.47-.407a.409.409,0,0,1,.566.161.435.435,0,0,1-.156.583A3.538,3.538,0,0,1,290.979,399.272Z" transform="translate(-289.626 -379.667)" fill="#fff" stroke="#fff" stroke-linecap="round" stroke-width="1.2"/>
      <path id="Line_26" data-name="Line 26" d="M-4.585,1.034l-.039,0A.424.424,0,0,1-5,.566l.467-5.178A.419.419,0,0,1-4.08-5a.424.424,0,0,1,.375.465L-4.172.645A.42.42,0,0,1-4.585,1.034Z" transform="translate(5.034 16.346)" fill="#fff" stroke="#fff" stroke-linecap="round" stroke-width="1.2"/>
      <path id="Path_43" data-name="Path 43" d="M296.061,314.454l-.039,0a.424.424,0,0,1-.375-.466,5.31,5.31,0,0,1,.765-2.25.408.408,0,0,1,.573-.135.435.435,0,0,1,.131.59,4.435,4.435,0,0,0-.642,1.875A.42.42,0,0,1,296.061,314.454Z" transform="translate(-295.146 -302.253)" fill="#fff" stroke="#fff" stroke-linecap="round" stroke-width="1.2"/>
      <path id="Line_27" data-name="Line 27" d="M-4.586,5.138A.4.4,0,0,1-4.81,5.07a.435.435,0,0,1-.124-.591L.878-4.8a.408.408,0,0,1,.574-.128.435.435,0,0,1,.124.591L-4.236,4.942A.412.412,0,0,1-4.586,5.138Z" transform="translate(6.204 5.001)" fill="#fff" stroke="#fff" stroke-linecap="round" stroke-width="1.2"/>
      <path id="Path_44" data-name="Path 44" d="M334.068,325.089a.4.4,0,0,1-.22-.066.435.435,0,0,1-.131-.59,1.073,1.073,0,0,0,.126-.8,1.178,1.178,0,0,0-.532-.738,1.132,1.132,0,0,0-1.542.291.408.408,0,0,1-.577.11.436.436,0,0,1-.107-.595,1.934,1.934,0,0,1,2.658-.537,2.025,2.025,0,0,1,.909,1.271,1.944,1.944,0,0,1-.231,1.457A.412.412,0,0,1,334.068,325.089Z" transform="translate(-327.574 -311.684)" fill="#fff" stroke="#fff" stroke-linecap="round" stroke-width="1.2"/>
      <path id="Path_45" data-name="Path 45" d="M365.666,346.093a.4.4,0,0,1-.221-.066.435.435,0,0,1-.129-.59.764.764,0,0,0,.09-.573.853.853,0,0,0-.385-.535.806.806,0,0,0-1.11.208.408.408,0,0,1-.577.113.436.436,0,0,1-.109-.594,1.621,1.621,0,0,1,2.226-.458,1.7,1.7,0,0,1,.764,1.07,1.634,1.634,0,0,1-.2,1.226A.412.412,0,0,1,365.666,346.093Z" transform="translate(-357.045 -331.335)" fill="#fff" stroke="#fff" stroke-linecap="round" stroke-width="1.2"/>
      <path id="Path_46" data-name="Path 46" d="M307.359,310.8a.4.4,0,0,1-.222-.066.435.435,0,0,1-.128-.59.763.763,0,0,0,.091-.573.871.871,0,0,0-.395-.546.823.823,0,0,0-1.124.208.408.408,0,0,1-.577.11.436.436,0,0,1-.107-.595,1.628,1.628,0,0,1,2.242-.454,1.718,1.718,0,0,1,.771,1.081,1.633,1.633,0,0,1-.2,1.227A.412.412,0,0,1,307.359,310.8Z" transform="translate(-303.56 -299.047)" fill="#fff" stroke="#fff" stroke-linecap="round" stroke-width="1.2"/>
      <path id="Path_47" data-name="Path 47" d="M296.7,374.623a.409.409,0,0,1-.318-.153,6.273,6.273,0,0,0-3.731-2.221.427.427,0,0,1-.334-.5.416.416,0,0,1,.483-.344,7.1,7.1,0,0,1,4.218,2.513.437.437,0,0,1-.052.6A.407.407,0,0,1,296.7,374.623Z" transform="translate(-292.087 -356.998)" fill="#fff" stroke="#fff" stroke-linecap="round" stroke-width="1.2"/>
    </g>
    <path id="Line_28" data-name="Line 28" d="M-4.568,1.523A.43.43,0,0,1-5,1.1V-4.572A.43.43,0,0,1-4.568-5a.43.43,0,0,1,.432.428V1.1A.43.43,0,0,1-4.568,1.523Z" transform="translate(37.099 35.402)" fill="#fff" stroke="#fff" stroke-linecap="round" stroke-width="1.2"/>
    <path id="Path_48" data-name="Path 48" d="M400.777,444.979a.428.428,0,1,1,0-.855,2.028,2.028,0,0,0,2.058-1.992.432.432,0,0,1,.864,0A2.889,2.889,0,0,1,400.777,444.979Z" transform="translate(-370.736 -405.634)" fill="#fff" stroke="#fff" stroke-linecap="round" stroke-width="1.2"/>
    <path id="Line_29" data-name="Line 29" d="M22.558-4.145H-4.568A.43.43,0,0,1-5-4.572.43.43,0,0,1-4.568-5H22.558a.43.43,0,0,1,.432.428A.43.43,0,0,1,22.558-4.145Z" transform="translate(7.483 43.49)" fill="#fff" stroke="#fff" stroke-linecap="round" stroke-width="1.2"/>
    <path id="Path_49" data-name="Path 49" d="M60.43,444.979a2.885,2.885,0,0,1-2.915-2.848.432.432,0,0,1,.864,0,2.025,2.025,0,0,0,2.051,1.992.428.428,0,1,1,0,.855Z" transform="translate(-57.515 -405.634)" fill="#fff" stroke="#fff" stroke-linecap="round" stroke-width="1.2"/>
    <path id="Path_50" data-name="Path 50" d="M57.947,56.929a.43.43,0,0,1-.432-.428V30.114a.426.426,0,0,1,.141-.316l10.755-9.682A.434.434,0,0,1,68.7,20H87.556a.428.428,0,1,1,0,.855H68.869L58.379,30.3V56.5A.43.43,0,0,1,57.947,56.929Z" transform="translate(-57.515 -20.004)" fill="#fff" stroke="#fff" stroke-linecap="round" stroke-width="1.2"/>
    <path id="Path_51" data-name="Path 51" d="M403.267,23.279a.43.43,0,0,1-.432-.428,2.028,2.028,0,0,0-2.058-1.992.428.428,0,1,1,0-.855,2.889,2.889,0,0,1,2.922,2.848A.43.43,0,0,1,403.267,23.279Z" transform="translate(-370.736 -20.004)" fill="#fff" stroke="#fff" stroke-linecap="round" stroke-width="1.2"/>
    <path id="Line_30" data-name="Line 30" d="M-4.568,13.458A.43.43,0,0,1-5,13.03v-17.6A.43.43,0,0,1-4.568-5a.43.43,0,0,1,.432.428v17.6A.43.43,0,0,1-4.568,13.458Z" transform="translate(37.099 7.42)" fill="#fff" stroke="#fff" stroke-linecap="round" stroke-width="1.2"/>
    <path id="Line_31" data-name="Line 31" d="M-4.568,4.782A.43.43,0,0,1-5,4.354V-4.572A.43.43,0,0,1-4.568-5a.43.43,0,0,1,.432.428V4.354A.43.43,0,0,1-4.568,4.782Z" transform="translate(16.25 5)" fill="#fff" stroke="#fff" stroke-linecap="round" stroke-width="1.2"/>
    <path id="Path_52" data-name="Path 52" d="M172.832,126.521a.428.428,0,1,1,0-.855.894.894,0,0,0,.9-.868.432.432,0,0,1,.864,0A1.744,1.744,0,0,1,172.832,126.521Z" transform="translate(-162.478 -115.443)" fill="#fff" stroke="#fff" stroke-linecap="round" stroke-width="1.2"/>
    <path id="Line_32" data-name="Line 32" d="M5.354-4.145H-4.568A.43.43,0,0,1-5-4.572.43.43,0,0,1-4.568-5H5.354a.43.43,0,0,1,.432.428A.43.43,0,0,1,5.354-4.145Z" transform="translate(5 15.222)" fill="#fff" stroke="#fff" stroke-linecap="round" stroke-width="1.2"/>
    <path id="Line_33" data-name="Line 33" d="M4.836-4.145h-9.4A.43.43,0,0,1-5-4.572.43.43,0,0,1-4.568-5h9.4a.43.43,0,0,1,.432.428A.43.43,0,0,1,4.836-4.145Z" transform="translate(22.731 9.106)" fill="#fff" stroke="#fff" stroke-linecap="round" stroke-width="1.2"/>
    <path id="Path_53" data-name="Path 53" d="M372.723,69.49a.43.43,0,0,1-.432-.428.184.184,0,0,0-.153-.2.428.428,0,1,1,0-.855,1.038,1.038,0,0,1,1.017,1.055A.43.43,0,0,1,372.723,69.49Z" transform="translate(-344.571 -63.901)" fill="#fff" stroke="#fff" stroke-linecap="round" stroke-width="1.2"/>
    <path id="Line_34" data-name="Line 34" d="M-4.568,1.157A.43.43,0,0,1-5,.729v-5.3A.43.43,0,0,1-4.568-5a.43.43,0,0,1,.432.428v5.3A.43.43,0,0,1-4.568,1.157Z" transform="translate(32.72 9.733)" fill="#fff" stroke="#fff" stroke-linecap="round" stroke-width="1.2"/>
    <path id="Path_54" data-name="Path 54" d="M372.138,138.808a.428.428,0,1,1,0-.855.183.183,0,0,0,.153-.2.432.432,0,0,1,.864,0A1.037,1.037,0,0,1,372.138,138.808Z" transform="translate(-344.571 -127.291)" fill="#fff" stroke="#fff" stroke-linecap="round" stroke-width="1.2"/>
    <path id="Line_35" data-name="Line 35" d="M4.836-4.145h-9.4A.43.43,0,0,1-5-4.572.43.43,0,0,1-4.568-5h9.4a.43.43,0,0,1,.432.428A.43.43,0,0,1,4.836-4.145Z" transform="translate(22.731 15.661)" fill="#fff" stroke="#fff" stroke-linecap="round" stroke-width="1.2"/>
    <path id="Path_55" data-name="Path 55" d="M257.036,138.808a1.038,1.038,0,0,1-1.019-1.054.432.432,0,0,1,.864,0,.181.181,0,0,0,.155.2.428.428,0,1,1,0,.855Z" transform="translate(-238.873 -127.291)" fill="#fff" stroke="#fff" stroke-linecap="round" stroke-width="1.2"/>
    <path id="Line_36" data-name="Line 36" d="M-4.568,1.157A.43.43,0,0,1-5,.729v-5.3A.43.43,0,0,1-4.568-5a.43.43,0,0,1,.432.428v5.3A.43.43,0,0,1-4.568,1.157Z" transform="translate(22.144 9.733)" fill="#fff" stroke="#fff" stroke-linecap="round" stroke-width="1.2"/>
    <path id="Path_56" data-name="Path 56" d="M256.45,69.49a.43.43,0,0,1-.432-.428,1.039,1.039,0,0,1,1.019-1.055.428.428,0,1,1,0,.855.184.184,0,0,0-.155.2A.43.43,0,0,1,256.45,69.49Z" transform="translate(-238.874 -63.901)" fill="#fff" stroke="#fff" stroke-linecap="round" stroke-width="1.2"/>
    <path id="Line_37" data-name="Line 37" d="M13.915-4.145H-4.568A.43.43,0,0,1-5-4.572.43.43,0,0,1-4.568-5H13.915a.43.43,0,0,1,.432.428A.43.43,0,0,1,13.915-4.145Z" transform="translate(8.925 21.291)" fill="#fff" stroke="#fff" stroke-linecap="round" stroke-width="1.2"/>
    <path id="Line_38" data-name="Line 38" d="M7.878-4.145H-4.568A.43.43,0,0,1-5-4.572.43.43,0,0,1-4.568-5H7.878a.43.43,0,0,1,.432.428A.43.43,0,0,1,7.878-4.145Z" transform="translate(8.925 29.904)" fill="#fff" stroke="#fff" stroke-linecap="round" stroke-width="1.2"/>
    <path id="Line_39" data-name="Line 39" d="M7.878-4.145H-4.568A.43.43,0,0,1-5-4.572.43.43,0,0,1-4.568-5H7.878a.43.43,0,0,1,.432.428A.43.43,0,0,1,7.878-4.145Z" transform="translate(8.925 38.517)" fill="#fff" stroke="#fff" stroke-linecap="round" stroke-width="1.2"/>
  </g>
</svg>
